<?xml version="1.0" standalone="no"?><!DOCTYPE svg PUBLIC "-//W3C//DTD SVG 1.1//EN" "http://www.w3.org/Graphics/SVG/1.1/DTD/svg11.dtd"><svg t="1749566071110" class="icon" viewBox="0 0 1024 1024" version="1.1" xmlns="http://www.w3.org/2000/svg" p-id="4053" width="256" height="256" xmlns:xlink="http://www.w3.org/1999/xlink"><path d="M291.2 403.2c73.6 0 155.2-22.4 240-83.2 232-166.4 417.6 8 438.4 28.8 12.8 12.8 32 12.8 44.8 0 12.8-12.8 12.8-32 0-44.8-24-24-246.4-232-521.6-35.2C260.8 435.2 75.2 260.8 54.4 240c-12.8-12.8-32-12.8-44.8 0-12.8 12.8-12.8 32 0 44.8C64 340.8 166.4 403.2 291.2 403.2z" p-id="4054" fill="#1296db"></path><path d="M492.8 480c-131.2 94.4-248 76.8-321.6 48-16-6.4-35.2 1.6-41.6 17.6-6.4 16 1.6 35.2 17.6 41.6 38.4 16 88 28.8 142.4 28.8 70.4 0 153.6-20.8 240-83.2 232-166.4 417.6 8 438.4 28.8 12.8 12.8 32 12.8 44.8 0 12.8-12.8 12.8-32 0-44.8C990.4 491.2 769.6 283.2 492.8 480z" p-id="4055" fill="#1296db"></path><path d="M875.2 649.6c-89.6-35.2-227.2-56-382.4 54.4C260.8 870.4 75.2 696 54.4 675.2c-12.8-12.8-32-12.8-44.8 0-12.8 12.8-12.8 32 0 44.8 54.4 56 156.8 118.4 281.6 118.4 73.6 0 155.2-22.4 240-83.2 131.2-94.4 248-78.4 321.6-48 16 6.4 35.2-1.6 41.6-17.6C900.8 673.6 892.8 656 875.2 649.6z" p-id="4056" fill="#1296db"></path></svg>